<svg width="564" height="660" viewBox="0 0 564 660" fill="none" xmlns="http://www.w3.org/2000/svg" xmlns:xlink="http://www.w3.org/1999/xlink">
<path d="M242.732,409.09C241.533,409.09 240.226,408.703 238.89,407.933L214.284,393.726C213.803,393.449 213.64,392.833 213.917,392.352C214.195,391.873 214.811,391.708 215.289,391.985L239.895,406.192C241.565,407.158 243.087,407.346 244.176,406.715C245.265,406.088 245.864,404.678 245.864,402.745L245.864,396.812C245.864,394.133 246.82,392.103 248.557,391.104C250.292,390.1 252.524,390.286 254.845,391.628L259.985,394.593C260.464,394.87 260.629,395.486 260.352,395.965C260.076,396.447 259.464,396.615 258.98,396.333L253.839,393.369C252.167,392.4 250.647,392.213 249.558,392.844C248.471,393.471 247.871,394.881 247.871,396.814L247.871,402.747C247.871,405.426 246.915,407.454 245.18,408.455C244.442,408.879 243.616,409.09 242.732,409.09Z" fill="#42E8E0"/>
<path d="M233.162,414.596C231.963,414.596 230.655,414.207 229.32,413.435L204.716,399.232C204.235,398.953 204.072,398.339 204.349,397.86C204.627,397.377 205.24,397.216 205.721,397.491L230.325,411.696C231.997,412.667 233.517,412.852 234.606,412.221C235.695,411.592 236.294,410.184 236.294,408.251L236.294,402.316C236.294,399.639 237.25,397.611 238.985,396.61C240.721,395.606 242.954,395.794 245.275,397.13L250.413,400.099C250.894,400.376 251.057,400.992 250.78,401.473C250.502,401.951 249.887,402.117 249.408,401.839L244.269,398.871C242.593,397.904 241.077,397.719 239.988,398.348C238.901,398.976 238.3,400.386 238.3,402.316L238.3,408.251C238.3,410.931 237.345,412.958 235.608,413.96C234.872,414.385 234.046,414.596 233.162,414.596Z" fill="#42E8E0"/>
<path d="M223.592,420.101C222.393,420.101 221.085,419.714 219.749,418.944L195.144,404.737C194.663,404.46 194.5,403.844 194.777,403.363C195.055,402.882 195.669,402.721 196.149,402.996L220.755,417.203C222.429,418.172 223.947,418.357 225.036,417.726C226.123,417.099 226.724,415.689 226.724,413.756L226.724,407.823C226.724,405.144 227.68,403.116 229.416,402.115C231.151,401.115 233.384,401.299 235.706,402.639L240.845,405.602C241.324,405.881 241.489,406.495 241.212,406.974C240.936,407.456 240.32,407.62 239.84,407.342L234.701,404.376C233.029,403.407 231.507,403.221 230.42,403.852C229.331,404.479 228.732,405.889 228.732,407.821L228.732,413.754C228.732,416.434 227.776,418.461 226.041,419.463C225.302,419.89 224.476,420.101 223.592,420.101Z" fill="#42E8E0"/>
<path d="M214.022,425.606C212.823,425.606 211.515,425.217 210.179,424.445L185.574,410.242C185.093,409.965 184.93,409.349 185.207,408.87C185.485,408.389 186.099,408.224 186.579,408.501L211.185,422.706C212.859,423.675 214.377,423.862 215.466,423.231C216.555,422.602 217.154,421.194 217.154,419.261L217.154,413.326C217.154,410.649 218.109,408.619 219.844,407.62C221.581,406.616 223.814,406.802 226.135,408.14L231.273,411.109C231.754,411.386 231.917,412.002 231.64,412.482C231.362,412.961 230.749,413.127 230.268,412.849L225.127,409.883C223.457,408.917 221.933,408.731 220.846,409.36C219.759,409.987 219.158,411.395 219.158,413.328L219.158,419.263C219.158,421.942 218.203,423.97 216.466,424.971C215.732,425.395 214.906,425.606 214.022,425.606Z" fill="#42E8E0"/>
<path d="M204.452,431.111C203.253,431.111 201.945,430.724 200.61,429.954L176.006,415.747C175.525,415.47 175.362,414.854 175.639,414.373C175.917,413.895 176.534,413.731 177.011,414.007L201.615,428.213C203.287,429.181 204.809,429.367 205.896,428.736C206.985,428.109 207.584,426.699 207.584,424.766L207.584,418.833C207.584,416.154 208.54,414.126 210.275,413.125C212.011,412.125 214.244,412.31 216.565,413.649L221.703,416.614C222.184,416.893 222.347,417.507 222.07,417.986C221.792,418.467 221.181,418.632 220.698,418.355L215.559,415.388C213.887,414.419 212.363,414.233 211.278,414.864C210.189,415.491 209.59,416.901 209.59,418.833L209.59,424.766C209.59,427.446 208.635,429.473 206.9,430.475C206.162,430.901 205.336,431.111 204.452,431.111Z" fill="#42E8E0"/>
<path d="M194.882,436.615C193.683,436.615 192.375,436.227 191.039,435.458L166.434,421.251C165.953,420.973 165.79,420.358 166.067,419.877C166.345,419.398 166.962,419.235 167.439,419.51L192.045,433.717C193.715,434.682 195.239,434.868 196.326,434.239C197.413,433.612 198.014,432.204 198.014,430.272L198.014,424.337C198.014,421.659 198.97,419.634 200.704,418.63C202.443,417.627 204.674,417.815 206.995,419.151L212.133,422.119C212.614,422.397 212.777,423.012 212.5,423.493C212.222,423.972 211.605,424.135 211.128,423.86L205.989,420.892C204.313,419.924 202.797,419.738 201.706,420.369C200.619,420.996 200.018,422.406 200.018,424.337L200.018,430.272C200.018,432.949 199.063,434.979 197.328,435.978C196.592,436.406 195.766,436.615 194.882,436.615Z" fill="#42E8E0"/>
<path d="M185.312,442.12C184.113,442.12 182.805,441.732 181.469,440.963L156.864,426.756C156.383,426.478 156.22,425.863 156.497,425.382C156.775,424.903 157.392,424.738 157.869,425.015L182.475,439.222C184.145,440.189 185.667,440.375 186.756,439.744C187.845,439.117 188.444,437.707 188.444,435.775L188.444,429.842C188.444,427.162 189.399,425.135 191.134,424.133C192.871,423.13 195.106,423.316 197.423,424.654L202.563,427.622C203.044,427.9 203.207,428.515 202.93,428.996C202.652,429.475 202.037,429.64 201.558,429.363L196.417,426.395C194.745,425.429 193.225,425.243 192.136,425.872C191.049,426.499 190.448,427.909 190.448,429.842L190.448,435.775C190.448,438.454 189.493,440.482 187.758,441.483C187.022,441.911 186.196,442.12 185.312,442.12Z" fill="#42E8E0"/>
<path d="M175.742,447.625C174.543,447.627 173.235,447.237 171.899,446.467L147.296,432.261C146.815,431.981 146.652,431.367 146.929,430.887C147.205,430.408 147.822,430.242 148.301,430.52L172.905,444.727C174.575,445.692 176.097,445.876 177.186,445.249C178.273,444.622 178.874,443.212 178.874,441.281L178.874,435.347C178.874,432.669 179.829,430.642 181.564,429.64C183.303,428.637 185.536,428.823 187.854,430.161L192.993,433.127C193.474,433.405 193.637,434.02 193.36,434.501C193.082,434.98 192.467,435.143 191.988,434.868L186.849,431.901C185.173,430.932 183.655,430.748 182.568,431.379C181.481,432.006 180.88,433.416 180.88,435.347L180.88,441.281C180.88,443.959 179.924,445.987 178.189,446.988C177.452,447.416 176.625,447.625 175.742,447.625Z" fill="#42E8E0"/>
<path d="M166.172,453.13C164.973,453.13 163.665,452.743 162.329,451.973L137.724,437.766C137.243,437.487 137.08,436.873 137.357,436.392C137.635,435.913 138.25,435.748 138.729,436.025L163.335,450.232C165.009,451.201 166.529,451.386 167.616,450.755C168.703,450.128 169.303,448.718 169.303,446.785L169.303,440.852C169.303,438.173 170.259,436.145 171.994,435.144C173.731,434.14 175.964,434.328 178.284,435.666L183.423,438.633C183.904,438.912 184.067,439.526 183.79,440.007C183.512,440.485 182.896,440.649 182.418,440.373L177.279,437.407C175.609,436.442 174.087,436.253 172.998,436.884C171.909,437.511 171.31,438.922 171.31,440.854L171.31,446.787C171.31,449.466 170.354,451.494 168.619,452.496C167.882,452.921 167.057,453.13 166.172,453.13Z" fill="#42E8E0"/>
<path d="M156.602,458.635C155.403,458.637 154.095,458.247 152.759,457.478L128.154,443.271C127.673,442.994 127.51,442.378 127.787,441.897C128.063,441.418 128.68,441.253 129.159,441.53L153.765,455.737C155.435,456.703 156.955,456.887 158.048,456.26C159.135,455.633 159.735,454.223 159.735,452.292L159.735,446.357C159.735,443.68 160.691,441.65 162.426,440.651C164.161,439.645 166.394,439.835 168.714,441.171L173.855,444.138C174.335,444.417 174.499,445.031 174.221,445.512C173.944,445.99 173.328,446.154 172.849,445.878L167.709,442.91C166.037,441.943 164.515,441.758 163.428,442.387C162.341,443.015 161.74,444.423 161.74,446.355L161.74,452.29C161.74,454.968 160.784,456.995 159.049,457.997C158.312,458.424 157.485,458.635 156.602,458.635Z" fill="#42E8E0"/>
<path d="M147.032,464.141C145.833,464.141 144.525,463.752 143.189,462.98L118.586,448.777C118.105,448.498 117.942,447.884 118.219,447.405C118.497,446.924 119.112,446.759 119.591,447.036L144.195,461.241C145.867,462.21 147.391,462.397 148.476,461.766C149.565,461.139 150.164,459.729 150.164,457.796L150.164,451.863C150.164,449.184 151.119,447.156 152.854,446.155C154.591,445.149 156.824,445.337 159.144,446.675L164.283,449.642C164.764,449.919 164.927,450.535 164.65,451.016C164.372,451.496 163.757,451.658 163.278,451.382L158.139,448.416C156.469,447.451 154.945,447.264 153.858,447.893C152.769,448.52 152.17,449.93 152.17,451.863L152.17,457.796C152.17,460.475 151.214,462.503 149.479,463.504C148.742,463.93 147.917,464.141 147.032,464.141Z" fill="#42E8E0"/>
<path d="M137.462,469.646C136.263,469.646 134.955,469.258 133.619,468.488L109.014,454.283C108.533,454.006 108.37,453.39 108.647,452.909C108.925,452.43 109.54,452.265 110.019,452.543L134.625,466.749C136.297,467.715 137.819,467.903 138.906,467.272C139.993,466.645 140.593,465.237 140.593,463.304L140.593,457.369C140.593,454.69 141.549,452.662 143.284,451.661C145.021,450.659 147.254,450.846 149.574,452.185L154.713,455.152C155.194,455.431 155.357,456.045 155.08,456.526C154.802,457.005 154.186,457.17 153.708,456.892L148.569,453.924C146.897,452.955 145.375,452.769 144.288,453.4C143.199,454.029 142.6,455.437 142.6,457.369L142.6,463.304C142.6,465.982 141.644,468.011 139.909,469.011C139.174,469.436 138.347,469.646 137.462,469.646Z" fill="#42E8E0"/>
<path d="M127.894,475.151C126.694,475.151 125.387,474.761 124.049,473.99L99.444,459.787C98.963,459.509 98.8,458.893 99.077,458.415C99.354,457.932 99.97,457.77 100.449,458.046L125.055,472.251C126.727,473.22 128.251,473.404 129.336,472.775C130.425,472.148 131.023,470.738 131.023,468.806L131.023,462.873C131.023,460.193 131.979,458.166 133.714,457.164C135.451,456.159 137.684,456.349 140.002,457.685L145.143,460.653C145.624,460.931 145.787,461.546 145.51,462.027C145.232,462.506 144.616,462.671 144.138,462.394L138.997,459.427C137.325,458.46 135.807,458.278 134.716,458.905C133.629,459.532 133.028,460.942 133.028,462.875L133.028,468.807C133.028,471.487 132.072,473.515 130.336,474.516C129.604,474.94 128.777,475.151 127.894,475.151Z" fill="#42E8E0"/>
<path d="M118.322,480.656C117.122,480.656 115.815,480.269 114.479,479.499L89.876,465.292C89.395,465.013 89.231,464.399 89.509,463.918C89.786,463.438 90.402,463.276 90.881,463.552L115.484,477.758C117.155,478.724 118.677,478.912 119.766,478.281C120.855,477.654 121.453,476.244 121.453,474.311L121.453,468.378C121.453,465.699 122.409,463.671 124.146,462.67C125.881,461.67 128.114,461.855 130.436,463.194L135.575,466.159C136.054,466.436 136.219,467.052 135.941,467.531C135.664,468.012 135.05,468.177 134.569,467.9L129.431,464.933C127.757,463.964 126.236,463.778 125.149,464.409C124.061,465.036 123.462,466.446 123.462,468.378L123.462,474.311C123.462,476.991 122.506,479.018 120.771,480.02C120.032,480.445 119.205,480.656 118.322,480.656Z" fill="#42E8E0"/>
<path d="M108.753,486.161C107.554,486.161 106.247,485.771 104.911,485L80.306,470.797C79.825,470.518 79.661,469.904 79.939,469.425C80.214,468.942 80.832,468.781 81.311,469.056L105.916,483.261C107.589,484.23 109.109,484.415 110.198,483.786C111.285,483.158 111.885,481.748 111.885,479.816L111.885,473.883C111.885,471.204 112.841,469.176 114.576,468.174C116.313,467.169 118.546,467.359 120.866,468.695L126.005,471.662C126.485,471.941 126.649,472.555 126.371,473.035C126.094,473.514 125.478,473.68 124.999,473.402L119.861,470.434C118.19,469.469 116.668,469.282 115.579,469.911C114.491,470.538 113.892,471.949 113.892,473.881L113.892,479.814C113.892,482.493 112.936,484.523 111.199,485.522C110.462,485.95 109.637,486.161 108.753,486.161Z" fill="#42E8E0"/>
<path d="M99.181,491.667C97.982,491.667 96.675,491.279 95.339,490.51L70.734,476.303C70.253,476.025 70.09,475.41 70.367,474.929C70.643,474.45 71.26,474.287 71.739,474.562L96.344,488.769C98.015,489.734 99.539,489.922 100.626,489.291C101.715,488.664 102.313,487.254 102.313,485.322L102.313,479.389C102.313,476.709 103.269,474.68 105.006,473.68C106.741,472.677 108.974,472.863 111.294,474.205L116.433,477.169C116.912,477.447 117.077,478.062 116.799,478.541C116.524,479.022 115.908,479.187 115.427,478.91L110.289,475.945C108.615,474.976 107.094,474.79 106.007,475.421C104.92,476.048 104.32,477.458 104.32,479.391L104.32,485.324C104.32,488.003 103.364,490.031 101.629,491.032C100.894,491.456 100.067,491.667 99.181,491.667Z" fill="#42E8E0"/>
<path d="M89.612,497.172C88.412,497.172 87.105,496.783 85.769,496.011L61.166,481.808C60.685,481.529 60.521,480.915 60.799,480.436C61.076,479.954 61.694,479.79 62.171,480.068L86.774,494.272C88.447,495.242 89.967,495.426 91.056,494.797C92.145,494.168 92.743,492.76 92.743,490.827L92.743,484.892C92.743,482.215 93.699,480.185 95.434,479.186C97.169,478.182 99.404,478.371 101.724,479.707L106.865,482.675C107.345,482.952 107.509,483.568 107.231,484.049C106.954,484.528 106.336,484.693 105.859,484.416L100.719,481.449C99.047,480.484 97.526,480.296 96.438,480.927C95.351,481.554 94.75,482.962 94.75,484.894L94.75,490.829C94.75,493.509 93.794,495.536 92.059,496.538C91.322,496.961 90.495,497.172 89.612,497.172Z" fill="#42E8E0"/>
<path d="M80.041,502.677C78.842,502.677 77.535,502.29 76.199,501.52L51.596,487.313C51.115,487.036 50.951,486.42 51.229,485.939C51.506,485.46 52.124,485.295 52.601,485.573L77.204,499.779C78.876,500.745 80.397,500.933 81.486,500.302C82.575,499.675 83.173,498.265 83.173,496.332L83.173,490.399C83.173,487.72 84.129,485.692 85.866,484.691C87.601,483.691 89.834,483.876 92.154,485.215L97.293,488.178C97.773,488.457 97.937,489.071 97.659,489.55C97.382,490.033 96.768,490.196 96.287,489.919L91.149,486.952C89.475,485.983 87.954,485.799 86.867,486.428C85.778,487.055 85.18,488.465 85.18,490.397L85.18,496.33C85.18,499.01 84.224,501.037 82.489,502.039C81.752,502.466 80.925,502.677 80.041,502.677Z" fill="#42E8E0"/>
<path d="M70.471,508.181C69.272,508.181 67.965,507.793 66.629,507.024L42.024,492.817C41.543,492.537 41.379,491.924 41.657,491.443C41.934,490.964 42.548,490.8 43.029,491.076L67.634,505.281C69.307,506.248 70.827,506.436 71.916,505.804C73.003,505.176 73.603,503.768 73.603,501.836L73.603,495.901C73.603,493.223 74.559,491.196 76.294,490.194C78.031,489.191 80.264,489.377 82.584,490.715L87.723,493.683C88.203,493.961 88.367,494.576 88.089,495.057C87.812,495.536 87.194,495.7 86.717,495.424L81.579,492.458C79.905,491.488 78.384,491.304 77.297,491.935C76.21,492.562 75.61,493.972 75.61,495.903L75.61,501.838C75.61,504.515 74.654,506.545 72.919,507.544C72.184,507.972 71.357,508.181 70.471,508.181Z" fill="#42E8E0"/>
<path d="M60.901,513.688C59.702,513.688 58.395,513.3 57.059,512.53L32.454,498.324C31.973,498.046 31.809,497.43 32.087,496.95C32.364,496.471 32.978,496.305 33.459,496.583L58.064,510.79C59.737,511.755 61.259,511.941 62.346,511.312C63.435,510.685 64.033,509.275 64.033,507.342L64.033,501.41C64.033,498.73 64.989,496.703 66.724,495.701C68.461,494.698 70.694,494.884 73.014,496.222L78.155,499.188C78.635,499.468 78.799,500.081 78.521,500.562C78.246,501.041 77.628,501.204 77.149,500.929L72.011,497.961C70.339,496.993 68.82,496.811 67.729,497.438C66.642,498.065 66.042,499.475 66.042,501.408L66.042,507.341C66.042,510.02 65.086,512.048 63.351,513.049C62.614,513.477 61.787,513.688 60.901,513.688Z" fill="#42E8E0"/>
<path d="M281.945,409.539C281.06,409.539 280.235,409.33 279.498,408.902C277.763,407.901 276.807,405.873 276.807,403.195L276.807,397.261C276.807,395.33 276.208,393.92 275.119,393.293C274.032,392.662 272.508,392.85 270.836,393.815L265.699,396.782C265.211,397.059 264.605,396.89 264.325,396.415C264.048,395.934 264.213,395.32 264.692,395.041L269.831,392.075C272.155,390.737 274.388,390.549 276.123,391.554C277.858,392.555 278.814,394.583 278.814,397.261L278.814,403.195C278.814,405.126 279.412,406.536 280.501,407.163C281.588,407.792 283.108,407.604 284.784,406.641L309.386,392.436C309.874,392.156 310.479,392.325 310.76,392.802C311.035,393.283 310.872,393.897 310.393,394.176L285.79,408.383C284.452,409.151 283.143,409.539 281.945,409.539Z" fill="#42E8E0"/>
<path d="M291.513,415.044C290.63,415.044 289.805,414.833 289.068,414.408C287.333,413.406 286.377,411.378 286.377,408.699L286.377,402.766C286.377,400.833 285.778,399.423 284.689,398.796C283.597,398.165 282.078,398.354 280.408,399.319L275.269,402.287C274.779,402.563 274.175,402.396 273.895,401.92C273.618,401.44 273.783,400.826 274.262,400.547L279.401,397.58C281.721,396.246 283.954,396.052 285.691,397.059C287.426,398.061 288.382,400.089 288.382,402.768L288.382,408.701C288.382,410.633 288.98,412.044 290.069,412.671C291.152,413.298 292.674,413.111 294.351,412.148L318.956,397.941C319.435,397.664 320.047,397.827 320.328,398.31C320.604,398.789 320.44,399.403 319.959,399.682L295.356,413.887C294.02,414.655 292.714,415.044 291.513,415.044Z" fill="#42E8E0"/>
<path d="M301.083,420.549C300.2,420.549 299.375,420.34 298.638,419.914C296.903,418.912 295.947,416.883 295.947,414.205L295.947,408.271C295.947,406.34 295.348,404.93 294.259,404.303C293.172,403.672 291.648,403.86 289.978,404.825L284.839,407.794C284.349,408.071 283.743,407.904 283.466,407.427C283.188,406.946 283.353,406.332 283.832,406.053L288.971,403.085C291.293,401.747 293.524,401.557 295.263,402.564C296.998,403.565 297.954,405.593 297.954,408.271L297.954,414.205C297.954,416.138 298.552,417.546 299.641,418.173C300.726,418.8 302.248,418.616 303.921,417.651L328.526,403.444C329.012,403.163 329.619,403.334 329.9,403.811C330.175,404.291 330.012,404.905 329.533,405.185L304.928,419.391C303.59,420.161 302.284,420.549 301.083,420.549Z" fill="#42E8E0"/>
<path d="M310.653,426.055C309.768,426.055 308.943,425.844 308.208,425.418C306.471,424.417 305.515,422.389 305.515,419.709L305.515,413.777C305.515,411.844 304.916,410.434 303.827,409.807C302.74,409.176 301.218,409.364 299.548,410.329L294.406,413.298C293.927,413.573 293.315,413.412 293.034,412.929C292.756,412.45 292.922,411.836 293.402,411.557L298.543,408.589C300.863,407.251 303.096,407.065 304.831,408.066C306.566,409.068 307.522,411.097 307.522,413.777L307.522,419.709C307.522,421.642 308.122,423.052 309.209,423.679C310.298,424.308 311.822,424.122 313.491,423.157L338.098,408.95C338.579,408.671 339.191,408.838 339.47,409.319C339.745,409.797 339.582,410.411 339.101,410.691L314.496,424.895C313.16,425.665 311.853,426.055 310.653,426.055Z" fill="#42E8E0"/>
<path d="M320.223,431.559C319.338,431.561 318.513,431.35 317.776,430.922C316.041,429.921 315.085,427.893 315.085,425.216L315.085,419.281C315.085,417.348 314.486,415.94 313.397,415.311C312.309,414.68 310.784,414.87 309.116,415.834L303.978,418.804C303.489,419.081 302.883,418.914 302.604,418.437C302.326,417.956 302.491,417.342 302.97,417.063L308.109,414.097C310.433,412.761 312.666,412.575 314.401,413.574C316.136,414.576 317.092,416.603 317.092,419.283L317.092,425.217C317.092,427.148 317.69,428.558 318.779,429.185C319.864,429.812 321.386,429.626 323.062,428.663L347.664,414.456C348.152,414.178 348.757,414.346 349.038,414.823C349.315,415.303 349.15,415.917 348.671,416.197L324.068,430.403C322.732,431.171 321.424,431.559 320.223,431.559Z" fill="#42E8E0"/>
<path d="M329.792,437.065C328.908,437.065 328.083,436.854 327.346,436.428C325.611,435.427 324.655,433.399 324.655,430.72L324.655,424.787C324.655,422.854 324.054,421.444 322.967,420.817C321.879,420.186 320.356,420.378 318.684,421.34L313.548,424.306C313.057,424.583 312.453,424.416 312.174,423.939C311.896,423.458 312.061,422.845 312.54,422.565L317.679,419.599C320.003,418.261 322.236,418.073 323.971,419.076C325.706,420.078 326.662,422.105 326.662,424.785L326.662,430.718C326.662,432.65 327.26,434.06 328.349,434.687C329.434,435.315 330.955,435.128 332.631,434.165L357.236,419.958C357.715,419.681 358.327,419.846 358.608,420.327C358.886,420.806 358.72,421.419 358.239,421.699L333.636,435.904C332.3,436.675 330.993,437.065 329.792,437.065Z" fill="#42E8E0"/>
<path d="M339.364,442.57C338.478,442.57 337.653,442.361 336.916,441.934C335.181,440.932 334.225,438.904 334.225,436.225L334.225,430.292C334.225,428.359 333.626,426.949 332.538,426.322C331.449,425.691 329.93,425.878 328.256,426.847L323.116,429.813C322.633,430.095 322.023,429.925 321.744,429.445C321.466,428.966 321.632,428.352 322.112,428.073L327.251,425.106C329.571,423.77 331.804,423.58 333.541,424.584C335.276,425.585 336.232,427.613 336.232,430.292L336.232,436.225C336.232,438.158 336.832,439.568 337.919,440.195C339.01,440.828 340.532,440.636 342.203,439.672L366.804,425.465C367.291,425.186 367.897,425.353 368.178,425.832C368.456,426.313 368.29,426.927 367.811,427.206L343.208,441.413C341.872,442.182 340.563,442.57 339.364,442.57Z" fill="#42E8E0"/>
<path d="M348.933,448.075C348.05,448.075 347.223,447.864 346.488,447.438C344.753,446.437 343.797,444.409 343.797,441.73L343.797,435.797C343.797,433.864 343.198,432.454 342.109,431.827C341.017,431.196 339.498,431.385 337.828,432.35L332.689,435.316C332.199,435.594 331.593,435.427 331.316,434.95C331.038,434.469 331.203,433.855 331.682,433.576L336.821,430.609C339.141,429.273 341.378,429.083 343.113,430.088C344.848,431.09 345.804,433.118 345.804,435.797L345.804,441.73C345.804,443.663 346.402,445.073 347.491,445.7C348.576,446.327 350.096,446.141 351.772,445.175L376.378,430.97C376.859,430.691 377.471,430.858 377.75,431.339C378.027,431.818 377.862,432.432 377.381,432.711L352.778,446.916C351.44,447.686 350.133,448.075 348.933,448.075Z" fill="#42E8E0"/>
<path d="M358.505,453.581C357.62,453.581 356.795,453.372 356.058,452.946C354.323,451.945 353.367,449.915 353.367,447.236L353.367,441.303C353.367,439.37 352.766,437.96 351.679,437.333C350.591,436.702 349.067,436.892 347.398,437.856L342.258,440.822C341.775,441.101 341.165,440.934 340.886,440.453C340.608,439.975 340.774,439.361 341.254,439.081L346.393,436.117C348.713,434.779 350.95,434.595 352.681,435.594C354.418,436.596 355.374,438.623 355.374,441.303L355.374,447.236C355.374,449.168 355.972,450.578 357.061,451.205C358.148,451.833 359.668,451.646 361.341,450.683L385.946,436.476C386.433,436.199 387.041,436.364 387.32,436.843C387.597,437.324 387.432,437.937 386.953,438.217L362.348,452.422C361.01,453.193 359.705,453.581 358.505,453.581Z" fill="#42E8E0"/>
<path d="M368.074,459.085C367.19,459.085 366.365,458.874 365.628,458.449C363.891,457.447 362.935,455.419 362.935,452.74L362.935,446.805C362.935,444.873 362.337,443.464 361.248,442.837C360.161,442.206 358.638,442.395 356.968,443.36L351.826,446.326C351.341,446.604 350.733,446.437 350.454,445.958C350.178,445.479 350.342,444.865 350.822,444.586L355.963,441.617C358.279,440.281 360.514,440.091 362.251,441.095C363.986,442.096 364.942,444.126 364.942,446.803L364.942,452.738C364.942,454.671 365.54,456.079 366.631,456.708C367.714,457.335 369.238,457.149 370.911,456.185L395.518,441.978C395.999,441.697 396.611,441.866 396.89,442.347C397.168,442.826 397.002,443.44 396.521,443.719L371.916,457.924C370.58,458.696 369.275,459.085 368.074,459.085Z" fill="#42E8E0"/>
<path d="M377.644,464.591C376.76,464.591 375.933,464.382 375.196,463.954C373.461,462.953 372.505,460.925 372.505,458.246L372.505,452.313C372.505,450.38 371.907,448.97 370.818,448.343C369.731,447.712 368.208,447.898 366.536,448.867L361.396,451.834C360.915,452.113 360.303,451.946 360.024,451.465C359.746,450.986 359.912,450.373 360.392,450.093L365.531,447.127C367.853,445.791 370.084,445.603 371.821,446.604C373.556,447.606 374.512,449.633 374.512,452.313L374.512,458.246C374.512,460.178 375.111,461.588 376.199,462.215C377.29,462.842 378.809,462.658 380.481,461.693L405.084,447.486C405.571,447.207 406.177,447.376 406.458,447.853C406.736,448.333 406.57,448.947 406.091,449.227L381.488,463.433C380.15,464.203 378.845,464.591 377.644,464.591Z" fill="#42E8E0"/>
<path d="M387.214,470.093C386.328,470.093 385.503,469.884 384.766,469.457C383.031,468.455 382.075,466.428 382.075,463.75L382.075,457.815C382.075,455.885 381.477,454.475 380.388,453.848C379.301,453.217 377.777,453.405 376.104,454.37L370.968,457.337C370.477,457.612 369.871,457.447 369.594,456.97C369.318,456.489 369.482,455.875 369.961,455.596L375.099,452.629C377.425,451.292 379.656,451.105 381.389,452.109C383.124,453.11 384.08,455.138 384.08,457.815L384.08,463.75C384.08,465.681 384.679,467.091 385.767,467.718C386.853,468.345 388.377,468.161 390.051,467.195L414.652,452.989C415.139,452.709 415.747,452.876 416.026,453.355C416.304,453.836 416.138,454.45 415.66,454.729L391.056,468.936C389.72,469.706 388.413,470.093 387.214,470.093Z" fill="#42E8E0"/>
<path d="M396.784,475.601C395.898,475.601 395.073,475.392 394.336,474.964C392.601,473.963 391.645,471.935 391.645,469.256L391.645,463.323C391.645,461.39 391.046,459.98 389.958,459.353C388.871,458.724 387.345,458.914 385.674,459.876L380.538,462.842C380.049,463.12 379.441,462.952 379.164,462.475C378.888,461.995 379.052,461.381 379.531,461.102L384.669,458.135C386.993,456.797 389.226,456.609 390.961,457.614C392.696,458.616 393.652,460.644 393.652,463.323L393.652,469.256C393.652,471.188 394.25,472.599 395.339,473.226C396.43,473.858 397.954,473.668 399.623,472.703L424.224,458.496C424.711,458.217 425.319,458.384 425.598,458.863C425.876,459.344 425.71,459.958 425.231,460.237L400.628,474.442C399.292,475.213 397.983,475.601 396.784,475.601Z" fill="#42E8E0"/>
<path d="M406.354,481.104C405.468,481.104 404.643,480.895 403.906,480.467C402.171,479.466 401.215,477.438 401.215,474.761L401.215,468.826C401.215,466.895 400.617,465.485 399.528,464.858C398.439,464.227 396.919,464.415 395.244,465.381L390.108,468.349C389.619,468.625 389.013,468.459 388.734,467.982C388.456,467.502 388.622,466.888 389.101,466.608L394.239,463.64C396.563,462.302 398.796,462.114 400.531,463.119C402.266,464.121 403.222,466.148 403.222,468.826L403.222,474.761C403.222,476.691 403.821,478.102 404.909,478.729C405.995,479.356 407.519,479.171 409.193,478.206L433.794,463.999C434.279,463.72 434.889,463.889 435.168,464.366C435.446,464.847 435.28,465.461 434.802,465.74L410.198,479.947C408.862,480.716 407.553,481.104 406.354,481.104Z" fill="#42E8E0"/>
<path d="M415.924,486.612C415.038,486.612 414.213,486.403 413.476,485.975C411.741,484.973 410.785,482.946 410.785,480.266L410.785,474.334C410.785,472.401 410.187,470.991 409.098,470.364C408.005,469.733 406.489,469.921 404.816,470.886L399.678,473.855C399.189,474.13 398.583,473.965 398.304,473.488C398.026,473.007 398.192,472.393 398.671,472.114L403.809,469.148C406.131,467.812 408.364,467.62 410.099,468.627C411.834,469.628 412.79,471.656 412.79,474.335L412.79,480.268C412.79,482.201 413.389,483.611 414.478,484.238C415.568,484.871 417.092,484.679 418.761,483.715L443.362,469.509C443.851,469.227 444.457,469.397 444.736,469.875C445.014,470.356 444.848,470.97 444.37,471.249L419.766,485.456C418.432,486.222 417.123,486.612 415.924,486.612Z" fill="#42E8E0"/>
<path d="M425.494,492.115C424.61,492.115 423.785,491.906 423.048,491.48C421.313,490.479 420.357,488.449 420.357,485.772L420.357,479.837C420.357,477.906 419.759,476.496 418.67,475.869C417.583,475.24 416.059,475.426 414.388,476.392L409.25,479.358C408.759,479.636 408.155,479.468 407.876,478.991C407.6,478.511 407.764,477.897 408.243,477.617L413.381,474.649C415.703,473.313 417.936,473.121 419.671,474.128C421.406,475.13 422.362,477.158 422.362,479.835L422.362,485.77C422.362,487.702 422.961,489.111 424.049,489.738C425.135,490.365 426.657,490.179 428.329,489.215L452.934,475.01C453.421,474.731 454.027,474.898 454.308,475.377C454.586,475.858 454.42,476.471 453.942,476.751L429.336,490.958C428,491.727 426.693,492.115 425.494,492.115Z" fill="#42E8E0"/>
<path d="M435.064,497.623C434.178,497.623 433.353,497.412 432.618,496.987C430.881,495.985 429.925,493.957 429.925,491.278L429.925,485.345C429.925,483.413 429.327,482.003 428.238,481.375C427.151,480.745 425.629,480.933 423.958,481.898L418.816,484.866C418.339,485.142 417.725,484.98 417.444,484.498C417.167,484.019 417.332,483.405 417.813,483.126L422.953,480.159C425.273,478.823 427.508,478.637 429.241,479.637C430.976,480.638 431.932,482.668 431.932,485.347L431.932,491.28C431.932,493.213 432.531,494.623 433.619,495.25C434.708,495.881 436.232,495.691 437.901,494.727L462.508,480.52C462.991,480.243 463.599,480.408 463.88,480.889C464.158,481.368 463.992,481.982 463.512,482.261L438.906,496.466C437.57,497.232 436.263,497.623 435.064,497.623Z" fill="#42E8E0"/>
<path d="M444.634,503.126C443.75,503.128 442.923,502.917 442.186,502.489C440.451,501.488 439.495,499.46 439.495,496.783L439.495,490.848C439.495,488.915 438.897,487.507 437.808,486.878C436.719,486.247 435.195,486.437 433.526,487.401L428.388,490.371C427.899,490.649 427.293,490.481 427.014,490.004C426.737,489.524 426.902,488.91 427.381,488.63L432.519,485.662C434.843,484.324 437.076,484.138 438.811,485.139C440.546,486.141 441.502,488.169 441.502,490.848L441.502,496.783C441.502,498.714 442.101,500.124 443.19,500.751C444.276,501.378 445.799,501.193 447.471,500.228L472.074,486.021C472.559,485.74 473.169,485.909 473.448,486.388C473.724,486.869 473.56,487.483 473.082,487.762L448.478,501.969C447.14,502.738 445.835,503.126 444.634,503.126Z" fill="#42E8E0"/>
<path d="M454.202,508.631C453.318,508.631 452.494,508.421 451.756,507.995C450.021,506.993 449.065,504.966 449.065,502.286L449.065,496.353C449.065,494.421 448.467,493.011 447.378,492.384C446.289,491.755 444.767,491.945 443.095,492.906L437.958,495.875C437.47,496.152 436.863,495.985 436.584,495.508C436.307,495.027 436.472,494.413 436.951,494.134L442.089,491.166C444.413,489.828 446.644,489.642 448.381,490.645C450.116,491.646 451.072,493.674 451.072,496.353L451.072,502.286C451.072,504.219 451.671,505.629 452.76,506.256C453.847,506.883 455.365,506.699 457.041,505.733L481.646,491.527C482.125,491.247 482.739,491.415 483.018,491.895C483.294,492.374 483.131,492.988 482.65,493.267L458.046,507.472C456.708,508.242 455.403,508.631 454.202,508.631Z" fill="#42E8E0"/>
<path d="M463.774,514.137C462.888,514.137 462.064,513.928 461.326,513.5C459.591,512.499 458.635,510.471 458.635,507.794L458.635,501.859C458.635,499.926 458.037,498.518 456.948,497.889C455.857,497.258 454.337,497.446 452.666,498.414L447.528,501.38C447.038,501.657 446.433,501.49 446.154,501.013C445.877,500.532 446.042,499.919 446.521,499.639L451.659,496.673C453.983,495.333 456.214,495.149 457.951,496.15C459.686,497.152 460.642,499.179 460.642,501.859L460.642,507.794C460.642,509.724 461.241,511.134 462.33,511.761C463.415,512.389 464.939,512.202 466.613,511.239L491.215,497.032C491.701,496.755 492.307,496.92 492.588,497.399C492.866,497.88 492.701,498.493 492.222,498.773L467.618,512.98C466.28,513.749 464.973,514.137 463.774,514.137Z" fill="#42E8E0"/>
<path d="M451.487,502.641L451.487,524.489L262.419,633.647L73.345,524.487L73.345,502.637L451.487,502.641Z" fill="url(#pf_0_173_418)"/>
<path d="M262.419,611.799L73.345,502.638L262.414,393.479L451.487,502.642L262.419,611.799Z" fill="#BCBEFF"/>
<path d="M262.419,609.248L75.557,501.362L73.345,502.637L262.419,611.8L451.487,502.641L449.277,501.364L262.419,609.248Z" fill="#FFFFFF"/>
<path d="M262.419,586.623L116.995,502.662L262.414,418.704L407.835,502.664L262.419,586.623Z" fill="#0F054C"/>
<g opacity="0.5">
<path d="M262.419,586.626L116.993,502.664L262.414,418.704L407.839,502.666L262.419,586.626Z" fill="url(#pf_0_173_424)"/>
</g>
<g opacity="0.5">
<path d="M262.414,397.532L407.84,481.494L407.84,502.664L262.414,418.704L262.414,397.532Z" fill="url(#pf_0_173_426)"/>
</g>
<g opacity="0.5">
<path d="M262.419,418.704L116.993,502.662L116.993,481.49L262.414,397.532L262.419,418.704Z" fill="url(#pf_0_173_427)"/>
</g>
<g opacity="0.5">
<path d="M262.419,565.452L116.993,481.49L262.414,397.532L407.839,481.494L262.419,565.452Z" fill="url(#pf_0_173_428)"/>
</g>
<g opacity="0.5">
<path d="M262.418,515.042L204.308,481.494L262.416,447.945L320.524,481.494L262.418,515.042Z" fill="#42E8E0"/>
</g>
<g opacity="0.5">
<path d="M262.416,451.031L317.852,483.039L320.524,481.496L262.416,447.945L204.309,481.494L206.981,483.037L262.416,451.031Z" fill="#42E8E0"/>
</g>
<g opacity="0.5">
<path d="M262.419,565.453L262.419,586.625L407.84,502.665L407.84,481.495L262.419,565.453Z" fill="url(#pf_0_173_431)"/>
</g>
<g opacity="0.5">
<path d="M116.993,481.492L116.993,502.663L262.419,586.625L262.419,565.454L116.993,481.492Z" fill="url(#pf_0_173_432)"/>
</g>
<g opacity="0.8">
<path d="M262.419,563.142L118.994,480.335L116.993,481.493L262.419,565.453L407.839,481.495L405.839,480.339L262.419,563.142Z" fill="#42E8E0"/>
</g>
<path d="M309.888,660C309.718,660 309.545,659.958 309.388,659.867L284.784,645.662C280.311,643.078 276.807,637.008 276.807,631.847L276.807,625.912C276.807,621.471 273.679,616.053 269.834,613.837L264.694,610.871C264.215,610.591 264.05,609.978 264.327,609.497C264.605,609.02 265.213,608.849 265.701,609.13L270.84,612.097C275.313,614.677 278.815,620.747 278.815,625.914L278.815,631.848C278.815,636.288 281.943,641.705 285.79,643.923L310.391,658.128C310.872,658.406 311.037,659.021 310.76,659.5C310.572,659.819 310.233,660 309.888,660Z" fill="#42E8E0"/>
<path d="M319.458,654.485C319.288,654.485 319.115,654.443 318.956,654.352L294.352,640.145C289.881,637.565 286.377,631.495 286.377,626.328L286.377,620.393C286.377,615.954 283.249,610.538 279.403,608.319L274.264,605.35C273.785,605.071 273.62,604.457 273.897,603.976C274.175,603.499 274.781,603.328 275.271,603.61L280.41,606.578C284.883,609.16 288.385,615.23 288.385,620.393L288.385,626.328C288.385,630.769 291.513,636.187 295.358,638.403L319.963,652.609C320.442,652.887 320.607,653.503 320.33,653.983C320.142,654.306 319.803,654.485 319.458,654.485Z" fill="#42E8E0"/>
<path d="M329.028,648.971C328.859,648.971 328.686,648.929 328.526,648.838L303.921,634.633C299.449,632.051 295.947,625.981 295.947,620.816L295.947,614.883C295.947,610.444 292.819,605.026 288.973,602.803L283.836,599.838C283.355,599.561 283.19,598.945 283.467,598.466C283.745,597.985 284.355,597.818 284.839,598.097L289.978,601.064C294.451,603.648 297.955,609.72 297.955,614.883L297.955,620.816C297.955,625.255 301.083,630.675 304.928,632.892L329.533,647.099C330.012,647.379 330.177,647.992 329.9,648.473C329.712,648.79 329.375,648.971 329.028,648.971Z" fill="#42E8E0"/>
<path d="M338.598,643.458C338.429,643.458 338.256,643.416 338.096,643.325L313.491,629.118C309.017,626.535 305.515,620.466 305.515,615.301L305.515,609.366C305.515,604.927 302.387,599.507 298.543,597.289L293.404,594.323C292.923,594.045 292.758,593.43 293.036,592.951C293.315,592.47 293.923,592.303 294.408,592.582L299.548,595.549C304.021,598.131 307.524,604.201 307.524,609.366L307.524,615.301C307.524,619.74 310.653,625.158 314.498,627.377L339.103,641.584C339.582,641.861 339.747,642.477 339.47,642.958C339.282,643.277 338.945,643.458 338.598,643.458Z" fill="#42E8E0"/>
<path d="M348.166,637.941C347.997,637.941 347.824,637.899 347.664,637.808L323.061,623.601C318.587,621.018 315.085,614.949 315.085,609.786L315.085,603.851C315.085,599.412 311.957,593.996 308.111,591.774L302.972,588.81C302.493,588.53 302.328,587.917 302.606,587.436C302.883,586.957 303.491,586.79 303.979,587.069L309.118,590.036C313.591,592.62 317.094,598.69 317.094,603.853L317.094,609.788C317.094,614.227 320.223,619.645 324.066,621.862L348.671,636.069C349.15,636.348 349.315,636.962 349.038,637.443C348.852,637.762 348.514,637.941 348.166,637.941Z" fill="#42E8E0"/>
<path d="M357.736,632.426C357.567,632.426 357.394,632.384 357.236,632.293L332.633,618.088C328.159,615.503 324.655,609.434 324.655,604.268L324.655,598.336C324.655,593.895 321.525,588.477 317.683,586.261L312.542,583.295C312.063,583.015 311.898,582.401 312.176,581.921C312.455,581.442 313.059,581.275 313.55,581.554L318.688,584.52C323.161,587.101 326.664,593.171 326.664,598.338L326.664,604.27C326.664,608.71 329.794,614.129 333.638,616.347L358.24,630.552C358.72,630.829 358.886,631.445 358.608,631.924C358.422,632.245 358.084,632.426 357.736,632.426Z" fill="#42E8E0"/>
<path d="M367.308,626.913C367.139,626.913 366.966,626.871 366.806,626.78L342.203,612.573C337.729,609.993 334.227,603.923 334.227,598.756L334.227,592.821C334.227,588.38 331.097,582.962 327.255,580.745L322.114,577.778C321.635,577.501 321.47,576.885 321.747,576.404C322.025,575.926 322.631,575.756 323.121,576.038L328.26,579.006C332.733,581.587 336.236,587.656 336.236,592.823L336.236,598.758C336.236,603.199 339.365,608.617 343.208,610.833L367.813,625.04C368.292,625.317 368.457,625.933 368.18,626.413C367.992,626.733 367.654,626.913 367.308,626.913Z" fill="#42E8E0"/>
<path d="M376.878,621.397C376.709,621.397 376.536,621.355 376.376,621.264L351.773,607.057C347.299,604.476 343.797,598.406 343.797,593.24L343.797,587.307C343.797,582.867 340.669,577.452 336.823,575.228L331.684,572.262C331.205,571.984 331.04,571.369 331.318,570.888C331.595,570.409 332.201,570.24 332.691,570.521L337.83,573.487C342.303,576.072 345.806,582.143 345.806,587.305L345.806,593.238C345.806,597.679 348.935,603.096 352.778,605.314L377.383,619.521C377.862,619.798 378.027,620.414 377.75,620.895C377.562,621.218 377.224,621.397 376.878,621.397Z" fill="#42E8E0"/>
<path d="M386.448,615.882C386.279,615.882 386.106,615.84 385.948,615.749L361.343,601.544C356.869,598.959 353.367,592.89 353.367,587.726L353.367,581.794C353.367,577.354 350.237,571.937 346.393,569.719L341.254,566.751C340.775,566.473 340.61,565.858 340.888,565.377C341.165,564.9 341.773,564.729 342.262,565.01L347.4,567.978C351.873,570.561 355.376,576.63 355.376,581.796L355.376,587.728C355.376,592.167 358.504,597.587 362.348,599.807L386.952,614.01C387.432,614.289 387.598,614.903 387.32,615.382C387.132,615.701 386.794,615.882 386.448,615.882Z" fill="#42E8E0"/>
<path d="M396.018,610.369C395.849,610.369 395.676,610.325 395.516,610.236L370.911,596.029C366.439,593.446 362.935,587.377 362.935,582.212L362.935,576.277C362.935,571.838 359.807,566.418 355.963,564.202L350.824,561.236C350.344,560.957 350.178,560.343 350.456,559.864C350.735,559.383 351.343,559.216 351.828,559.495L356.968,562.462C361.44,565.044 364.944,571.114 364.944,576.279L364.944,582.214C364.944,586.653 368.072,592.069 371.918,594.288L396.523,608.493C397.002,608.773 397.168,609.386 396.89,609.867C396.702,610.188 396.364,610.369 396.018,610.369Z" fill="#42E8E0"/>
<path d="M405.586,604.852C405.417,604.852 405.244,604.81 405.084,604.719L380.481,590.512C376.007,587.93 372.505,581.86 372.505,576.695L372.505,570.762C372.505,566.323 369.377,560.903 365.531,558.686L360.394,555.719C359.914,555.442 359.748,554.826 360.026,554.347C360.303,553.866 360.913,553.697 361.398,553.979L366.536,556.945C371.01,559.529 374.514,565.599 374.514,570.762L374.514,576.695C374.514,581.134 377.644,586.55 381.488,588.77L406.091,602.976C406.57,603.254 406.736,603.87 406.458,604.35C406.27,604.673 405.934,604.852 405.586,604.852Z" fill="#42E8E0"/>
<path d="M415.156,599.338C414.987,599.338 414.814,599.297 414.656,599.205L390.053,585C385.578,582.416 382.075,576.346 382.075,571.181L382.075,565.248C382.075,560.807 378.947,555.39 375.103,553.174L369.963,550.207C369.484,549.928 369.318,549.314 369.596,548.833C369.873,548.356 370.479,548.187 370.97,548.467L376.108,551.435C380.58,554.016 384.084,560.085 384.084,565.25L384.084,571.183C384.084,575.622 387.212,581.042 391.058,583.26L415.66,597.465C416.14,597.742 416.306,598.358 416.028,598.837C415.84,599.158 415.504,599.338 415.156,599.338Z" fill="#42E8E0"/>
<path d="M424.726,593.824C424.557,593.824 424.384,593.782 424.224,593.691L399.621,579.484C395.149,576.904 391.645,570.834 391.645,565.667L391.645,559.732C391.645,555.291 388.515,549.873 384.673,547.657L379.533,544.689C379.054,544.412 378.888,543.796 379.166,543.315C379.443,542.838 380.051,542.667 380.54,542.948L385.678,545.917C390.15,548.497 393.654,554.567 393.654,559.734L393.654,565.669C393.654,570.11 396.782,575.528 400.626,577.745L425.232,591.952C425.711,592.231 425.876,592.845 425.598,593.326C425.412,593.645 425.074,593.824 424.726,593.824Z" fill="#42E8E0"/>
<path d="M434.296,588.308C434.127,588.308 433.954,588.265 433.794,588.175L409.191,573.969C404.719,571.388 401.215,565.318 401.215,560.153L401.215,554.22C401.215,549.781 398.087,544.361 394.241,542.142L389.105,539.177C388.624,538.9 388.458,538.284 388.736,537.805C389.011,537.326 389.623,537.155 390.108,537.437L395.246,540.401C399.72,542.986 403.224,549.055 403.224,554.22L403.224,560.153C403.224,564.594 406.352,570.012 410.196,572.228L434.802,586.433C435.28,586.712 435.446,587.326 435.168,587.807C434.982,588.128 434.644,588.308 434.296,588.308Z" fill="#42E8E0"/>
<path d="M443.868,582.793C443.699,582.793 443.526,582.752 443.368,582.66L418.765,568.455C414.29,565.871 410.787,559.801 410.787,554.638L410.787,548.705C410.787,544.266 407.659,538.848 403.813,536.631L398.675,533.662C398.196,533.385 398.03,532.769 398.308,532.288C398.585,531.81 399.193,531.642 399.682,531.922L404.82,534.888C409.292,537.471 412.796,543.54 412.796,548.705L412.796,554.638C412.796,559.077 415.924,564.497 419.77,566.719L444.372,580.922C444.852,581.199 445.018,581.815 444.74,582.294C444.552,582.613 444.214,582.793 443.868,582.793Z" fill="#42E8E0"/>
<path d="M453.438,577.28C453.269,577.28 453.096,577.239 452.936,577.148L428.331,562.941C423.861,560.358 420.357,554.288 420.357,549.123L420.357,543.189C420.357,538.75 417.229,533.334 413.383,531.114L408.245,528.148C407.766,527.868 407.6,527.255 407.878,526.774C408.157,526.295 408.761,526.128 409.252,526.407L414.39,529.375C418.862,531.958 422.366,538.027 422.366,543.191L422.366,549.125C422.366,553.564 425.494,558.984 429.338,561.2L453.944,575.407C454.422,575.684 454.588,576.3 454.31,576.781C454.122,577.1 453.784,577.28 453.438,577.28Z" fill="#42E8E0"/>
<path d="M463.008,571.765C462.839,571.765 462.666,571.723 462.506,571.632L437.901,557.425C433.43,554.842 429.925,548.773 429.925,543.608L429.925,537.675C429.925,533.236 426.799,527.816 422.953,525.596L417.815,522.632C417.334,522.352 417.169,521.739 417.446,521.26C417.723,520.779 418.332,520.61 418.818,520.891L423.958,523.858C428.432,526.442 431.934,532.512 431.934,537.675L431.934,543.608C431.934,548.047 435.064,553.463 438.908,555.684L463.514,569.891C463.993,570.168 464.158,570.784 463.88,571.265C463.692,571.584 463.354,571.765 463.008,571.765Z" fill="#42E8E0"/>
<path d="M472.576,566.248C472.407,566.248 472.234,566.206 472.077,566.115L447.473,551.91C443,549.326 439.495,543.254 439.495,538.093L439.495,532.16C439.495,527.719 436.367,522.301 432.523,520.084L427.383,517.117C426.904,516.84 426.739,516.224 427.016,515.743C427.293,515.264 427.902,515.095 428.39,515.377L433.528,518.343C438.002,520.924 441.504,526.993 441.504,532.16L441.504,538.093C441.504,542.532 444.632,547.948 448.478,550.171L473.08,564.375C473.561,564.652 473.726,565.268 473.449,565.747C473.26,566.068 472.924,566.248 472.576,566.248Z" fill="#42E8E0"/>
<path d="M482.146,560.735C481.977,560.735 481.804,560.693 481.644,560.602L457.041,546.395C452.57,543.814 449.065,537.744 449.065,532.579L449.065,526.645C449.065,522.204 445.937,516.786 442.093,514.57L436.953,511.602C436.474,511.324 436.308,510.708 436.586,510.228C436.863,509.749 437.472,509.58 437.96,509.861L443.098,512.829C447.572,515.41 451.074,521.48 451.074,526.647L451.074,532.581C451.074,537.022 454.204,542.44 458.046,544.656L482.652,558.863C483.13,559.142 483.296,559.756 483.018,560.237C482.832,560.556 482.494,560.735 482.146,560.735Z" fill="#42E8E0"/>
<path d="M491.716,555.22C491.547,555.22 491.374,555.178 491.215,555.087L466.611,540.88C462.14,538.3 458.635,532.23 458.635,527.063L458.635,521.13C458.635,516.691 455.508,511.272 451.661,509.05L446.525,506.087C446.044,505.808 445.879,505.194 446.156,504.715C446.433,504.235 447.043,504.065 447.528,504.347L452.667,507.313C457.142,509.898 460.644,515.967 460.644,521.13L460.644,527.063C460.644,531.504 463.774,536.922 467.616,539.138L492.222,553.343C492.701,553.622 492.866,554.236 492.588,554.717C492.402,555.04 492.064,555.22 491.716,555.22Z" fill="#42E8E0"/>
<path d="M214.275,659.999C213.927,659.999 213.59,659.818 213.404,659.495C213.127,659.017 213.29,658.403 213.771,658.123L238.376,643.918C242.221,641.699 245.349,636.279 245.349,631.844L245.349,625.909C245.349,620.744 248.853,614.676 253.324,612.092L258.465,609.126C258.942,608.85 259.561,609.013 259.837,609.492C260.114,609.973 259.951,610.587 259.47,610.866L254.33,613.833C250.485,616.05 247.357,621.468 247.357,625.907L247.357,631.842C247.357,637.005 243.853,643.073 239.38,645.657L214.774,659.864C214.618,659.955 214.446,659.999 214.275,659.999Z" fill="#42E8E0"/>
<path d="M204.706,654.484C204.359,654.484 204.022,654.303 203.836,653.982C203.559,653.501 203.722,652.888 204.203,652.608L228.806,638.401C232.651,636.184 235.779,630.764 235.779,626.327L235.779,620.392C235.779,615.227 239.283,609.159 243.756,606.577L248.895,603.608C249.372,603.333 249.989,603.496 250.267,603.975C250.544,604.456 250.381,605.07 249.9,605.349L244.761,608.317C240.917,610.535 237.789,615.955 237.789,620.392L237.789,626.327C237.789,631.492 234.285,637.56 229.812,640.144L205.208,654.351C205.049,654.442 204.876,654.484 204.706,654.484Z" fill="#42E8E0"/>
<path d="M195.135,648.97C194.787,648.97 194.45,648.79 194.264,648.469C193.987,647.988 194.15,647.374 194.631,647.095L219.236,632.888C223.081,630.67 226.209,625.251 226.209,620.811L226.209,614.879C226.209,609.714 229.713,603.646 234.186,601.061L239.325,598.093C239.803,597.816 240.419,597.981 240.697,598.462C240.974,598.941 240.809,599.554 240.33,599.834L235.191,602.8C231.347,605.02 228.219,610.439 228.219,614.877L228.219,620.809C228.219,625.975 224.715,632.042 220.243,634.627L195.638,648.832C195.478,648.929 195.306,648.97 195.135,648.97Z" fill="#42E8E0"/>
<path d="M185.565,643.457C185.217,643.457 184.88,643.276 184.694,642.955C184.417,642.474 184.58,641.861 185.061,641.581L209.666,627.375C213.511,625.157 216.639,619.737 216.639,615.298L216.639,609.365C216.639,604.2 220.143,598.132 224.614,595.548L229.755,592.581C230.233,592.304 230.849,592.469 231.127,592.948C231.404,593.429 231.239,594.043 230.76,594.322L225.619,597.289C221.775,599.506 218.647,604.926 218.647,609.365L218.647,615.3C218.647,620.465 215.143,626.533 210.67,629.117L186.064,643.324C185.908,643.413 185.736,643.457 185.565,643.457Z" fill="#42E8E0"/>
<path d="M175.996,637.94C175.649,637.94 175.312,637.76 175.126,637.439C174.849,636.958 175.012,636.344 175.493,636.065L200.096,621.858C203.941,619.64 207.069,614.222 207.069,609.783L207.069,603.848C207.069,598.685 210.573,592.618 215.046,590.033L220.185,587.063C220.664,586.785 221.279,586.951 221.557,587.43C221.834,587.91 221.671,588.524 221.19,588.804L216.051,591.77C212.207,593.99 209.079,599.409 209.079,603.845L209.079,609.779C209.079,614.944 205.575,621.012 201.102,623.595L176.498,637.802C176.338,637.898 176.167,637.94 175.996,637.94Z" fill="#42E8E0"/>
<path d="M166.424,632.426C166.077,632.426 165.74,632.245 165.554,631.922C165.277,631.443 165.44,630.83 165.921,630.55L190.526,616.345C194.371,614.126 197.499,608.706 197.499,604.269L197.499,598.336C197.499,593.171 201.003,587.103 205.476,584.519L210.615,581.552C211.092,581.277 211.709,581.44 211.987,581.919C212.264,582.4 212.101,583.014 211.62,583.293L206.481,586.259C202.637,588.477 199.509,593.897 199.509,598.334L199.509,604.267C199.509,609.432 196.005,615.5 191.533,618.084L166.928,632.291C166.768,632.384 166.595,632.426 166.424,632.426Z" fill="#42E8E0"/>
<path d="M156.854,626.913C156.507,626.913 156.17,626.732 155.984,626.411C155.707,625.93 155.87,625.316 156.351,625.037L180.956,610.83C184.8,608.612 187.928,603.195 187.928,598.755L187.928,592.821C187.928,587.656 191.433,581.588 195.904,579.004L201.044,576.035C201.523,575.76 202.139,575.923 202.416,576.402C202.694,576.883 202.53,577.497 202.05,577.776L196.909,580.742C193.065,582.96 189.937,588.378 189.937,592.819L189.937,598.754C189.937,603.919 186.433,609.986 181.959,612.571L157.354,626.778C157.198,626.869 157.025,626.913 156.854,626.913Z" fill="#42E8E0"/>
<path d="M147.286,621.396C146.939,621.396 146.602,621.215 146.416,620.894C146.138,620.414 146.304,619.8 146.783,619.52L171.386,605.314C175.23,603.096 178.358,597.676 178.358,593.237L178.358,587.304C178.358,582.139 181.863,576.071 186.336,573.489L191.474,570.519C191.953,570.243 192.569,570.406 192.846,570.885C193.124,571.366 192.961,571.98 192.48,572.259L187.341,575.226C183.497,577.445 180.369,582.865 180.369,587.302L180.369,593.235C180.369,598.4 176.865,604.468 172.391,607.052L147.788,621.259C147.628,621.354 147.457,621.396 147.286,621.396Z" fill="#42E8E0"/>
<path d="M137.716,615.881C137.368,615.881 137.032,615.701 136.846,615.378C136.568,614.899 136.732,614.285 137.213,614.006L161.818,599.801C165.662,597.581 168.79,592.161 168.79,587.724L168.79,581.791C168.79,576.626 172.295,570.558 176.768,567.974L181.906,565.006C182.385,564.728 183.001,564.894 183.278,565.373C183.556,565.853 183.392,566.467 182.912,566.746L177.773,569.715C173.929,571.932 170.801,577.35 170.801,581.789L170.801,587.722C170.801,592.887 167.297,598.955 162.825,601.537L138.22,615.744C138.058,615.837 137.887,615.881 137.716,615.881Z" fill="#42E8E0"/>
<path d="M128.144,610.369C127.797,610.369 127.46,610.188 127.274,609.867C126.997,609.387 127.16,608.773 127.641,608.493L152.246,594.288C156.091,592.071 159.219,586.651 159.219,582.214L159.219,576.279C159.219,571.114 162.723,565.046 167.194,562.462L172.335,559.496C172.813,559.218 173.429,559.383 173.707,559.862C173.984,560.343 173.819,560.957 173.34,561.236L168.199,564.203C164.355,566.42 161.227,571.84 161.227,576.277L161.227,582.212C161.227,587.377 157.723,593.445 153.25,596.029L128.644,610.236C128.488,610.325 128.315,610.369 128.144,610.369Z" fill="#42E8E0"/>
<path d="M118.576,604.853C118.228,604.853 117.892,604.672 117.706,604.351C117.428,603.87 117.594,603.257 118.073,602.977L142.676,588.77C146.52,586.553 149.648,581.135 149.648,576.696L149.648,570.763C149.648,565.598 153.153,559.53 157.626,556.946L162.764,553.979C163.245,553.7 163.859,553.867 164.136,554.348C164.414,554.827 164.249,555.441 163.77,555.72L158.631,558.686C154.785,560.906 151.657,566.326 151.657,570.763L151.657,576.696C151.657,581.861 148.153,587.929 143.679,590.513L119.076,604.72C118.92,604.811 118.747,604.853 118.576,604.853Z" fill="#42E8E0"/>
<path d="M109.006,599.337C108.658,599.337 108.322,599.157 108.136,598.834C107.858,598.355 108.022,597.741 108.502,597.462L133.108,583.257C136.952,581.037 140.08,575.618 140.08,571.18L140.08,565.247C140.08,560.082 143.584,554.015 148.058,551.432L153.196,548.464C153.675,548.188 154.291,548.35 154.568,548.831C154.846,549.311 154.682,549.925 154.201,550.205L149.063,553.171C145.219,555.389 142.091,560.808 142.091,565.246L142.091,571.178C142.091,576.343 138.586,582.411 134.115,584.996L109.51,599.203C109.348,599.294 109.177,599.337 109.006,599.337Z" fill="#42E8E0"/>
<path d="M99.436,593.823C99.088,593.823 98.752,593.643 98.566,593.321C98.288,592.841 98.452,592.227 98.932,591.948L123.538,577.741C127.382,575.523 130.51,570.103 130.51,565.664L130.51,559.729C130.51,554.564 134.014,548.497 138.486,545.912L143.624,542.944C144.103,542.668 144.719,542.83 144.996,543.311C145.274,543.791 145.108,544.405 144.63,544.685L139.491,547.653C135.647,549.87 132.519,555.288 132.519,559.727L132.519,565.662C132.519,570.827 129.015,576.895 124.541,579.479L99.936,593.686C99.778,593.781 99.605,593.823 99.436,593.823Z" fill="#42E8E0"/>
<path d="M89.866,588.308C89.518,588.308 89.182,588.127 88.996,587.806C88.718,587.325 88.882,586.712 89.363,586.432L113.966,572.227C117.81,570.01 120.94,564.59 120.94,560.153L120.94,554.22C120.94,549.055 124.444,542.987 128.918,540.403L134.056,537.436C134.535,537.157 135.151,537.324 135.428,537.805C135.706,538.284 135.54,538.898 135.061,539.177L129.923,542.143C126.079,544.363 122.951,549.783 122.951,554.22L122.951,560.153C122.951,565.318 119.446,571.386 114.973,573.968L90.37,588.175C90.21,588.266 90.037,588.308 89.866,588.308Z" fill="#42E8E0"/>
<path d="M80.296,582.793C79.948,582.793 79.612,582.613 79.426,582.29C79.148,581.811 79.312,581.197 79.792,580.918L104.396,566.713C108.24,564.493 111.368,559.074 111.368,554.636L111.368,548.703C111.368,543.538 114.872,537.471 119.346,534.886L124.484,531.92C124.961,531.642 125.579,531.808 125.856,532.287C126.134,532.767 125.97,533.381 125.49,533.661L120.351,536.629C116.507,538.846 113.379,544.264 113.379,548.703L113.379,554.636C113.379,559.801 109.875,565.869 105.401,568.454L80.798,582.66C80.64,582.75 80.467,582.793 80.296,582.793Z" fill="#42E8E0"/>
<path d="M70.726,577.28C70.378,577.28 70.042,577.099 69.856,576.778C69.578,576.297 69.742,575.684 70.222,575.404L94.828,561.197C98.672,558.98 101.8,553.56 101.8,549.123L101.8,543.188C101.8,538.023 105.304,531.955 109.777,529.373L114.916,526.404C115.393,526.129 116.011,526.292 116.288,526.771C116.565,527.252 116.402,527.866 115.921,528.145L110.783,531.111C106.938,533.329 103.81,538.749 103.81,543.186L103.81,549.121C103.81,554.286 100.306,560.354 95.835,562.938L71.229,577.145C71.068,577.236 70.897,577.28 70.726,577.28Z" fill="#42E8E0"/>
<path d="M61.154,571.763C60.806,571.763 60.47,571.583 60.284,571.262C60.006,570.781 60.17,570.167 60.651,569.888L85.256,555.681C89.1,553.463 92.228,548.044 92.228,543.604L92.228,537.672C92.228,532.507 95.732,526.439 100.204,523.856L105.344,520.888C105.825,520.611 106.439,520.776 106.716,521.257C106.994,521.736 106.828,522.349 106.349,522.629L101.211,525.595C97.367,527.815 94.239,533.234 94.239,537.672L94.239,543.604C94.239,548.77 90.734,554.837 86.261,557.422L61.656,571.629C61.498,571.722 61.325,571.763 61.154,571.763Z" fill="#42E8E0"/>
<path d="M51.586,566.248C51.238,566.248 50.902,566.068 50.716,565.745C50.438,565.266 50.602,564.652 51.082,564.373L75.686,550.168C79.53,547.948 82.658,542.529 82.658,538.091L82.658,532.159C82.658,526.993 86.162,520.926 90.636,518.341L95.774,515.375C96.251,515.097 96.869,515.263 97.146,515.742C97.424,516.222 97.258,516.836 96.78,517.116L91.641,520.082C87.797,522.3 84.669,527.719 84.669,532.159L84.669,538.091C84.669,543.256 81.165,549.324 76.691,551.907L52.088,566.114C51.93,566.205 51.757,566.248 51.586,566.248Z" fill="#42E8E0"/>
<path d="M42.016,560.734C41.668,560.734 41.332,560.553 41.146,560.232C40.868,559.751 41.034,559.137 41.512,558.858L66.118,544.651C69.962,542.434 73.09,537.014 73.09,532.577L73.09,526.642C73.09,521.477 76.594,515.409 81.068,512.825L86.206,509.856C86.683,509.579 87.303,509.744 87.578,510.223C87.856,510.704 87.692,511.318 87.211,511.597L82.073,514.565C78.229,516.783 75.101,522.201 75.101,526.64L75.101,532.575C75.101,537.74 71.596,543.807 67.125,546.39L42.52,560.597C42.358,560.692 42.187,560.734 42.016,560.734Z" fill="#42E8E0"/>
<path d="M32.446,555.219C32.098,555.219 31.762,555.038 31.576,554.717C31.298,554.236 31.462,553.622 31.942,553.343L56.548,539.138C60.392,536.92 63.522,531.501 63.522,527.063L63.522,521.131C63.522,515.966 67.026,509.898 71.498,507.313L76.638,504.347C77.119,504.07 77.733,504.235 78.01,504.716C78.288,505.195 78.122,505.808 77.643,506.088L72.503,509.052C68.659,511.272 65.531,516.691 65.531,521.129L65.531,527.062C65.531,532.227 62.026,538.294 57.553,540.879L32.948,555.086C32.788,555.177 32.615,555.219 32.446,555.219Z" fill="#42E8E0"/>
<g opacity="0.3">
<path d="M440.191,201.079C441.888,210.675 449.007,234.798 478.378,251.485C520.187,270.792 549.15,296.173 558.853,324.511C559.539,326.369 560.487,328.843 561.377,330.614C562.418,328.897 562.418,328.897 562.424,324.742L562.424,277.164C562.405,249.227 560.837,243.068 558.853,235.271C549.15,206.934 520.189,181.553 478.378,162.246C445.024,151.479 436.949,182.75 440.191,201.079Z" fill="#42E8E0"/>
<path d="M133.597,143.991C177.863,131.151 230.228,123.92 286.12,124.378C293.496,124.439 300.798,124.631 308.022,124.952C357.1,129.435 374.554,181.264 344.966,203.941C331.384,214.349 315.014,214.239 308.022,214.193C300.798,213.872 293.496,213.678 286.12,213.619C230.23,213.161 177.863,220.39 133.597,233.232C88.901,244.119 86.262,198.7 101.892,170.915C107.148,161.571 116.918,149.314 133.597,143.991Z" fill="#42E8E0"/>
<path d="M0,345.665C1.218,331.521 2.182,320.347 16.582,300.849C46.942,256.051 40.812,203.986 24.041,206.392C21.339,206.78 18.528,209.693 16.582,211.61C6.391,224.892 0.599,239.174 0.044,254.077C0.015,254.862 0,255.645 0,256.428L0,345.665Z" fill="#42E8E0"/>
</g>
<path d="M381.78,355.35L371.353,355.35L371.353,444.359L381.78,444.359L381.78,355.35Z" transform="rotate(-44.071 376.567 399.854)" fill="#42E8E0"/>
<circle cx="180.998" cy="318.216" r="32.399" fill="url(#pf_0_173_485)"/>
<path d="M348.293,366.141C348.293,429.03 310.843,480.012 264.645,480.012C218.446,480.012 180.996,429.03 180.996,366.141C180.996,303.251 218.446,284.406 264.645,284.406C310.843,284.406 348.293,303.251 348.293,366.141Z" fill="url(#pf_0_173_488)"/>
<path d="M348.293,366.141C348.293,429.03 310.843,480.012 264.645,480.012C218.446,480.012 180.996,429.03 180.996,366.141C180.996,303.251 218.446,284.406 264.645,284.406C310.843,284.406 348.293,303.251 348.293,366.141Z" fill="url(#pf_0_173_491)"/>
<path d="M264.645,351.175C296.173,351.175 321.732,336.419 321.732,318.216C321.732,300.013 296.173,285.257 264.645,285.257C233.116,285.257 207.557,300.013 207.557,318.216C207.557,336.419 233.116,351.175 264.645,351.175Z" fill="#393091"/>
<path d="M224.278,303.69C246.573,290.819 282.719,290.819 305.013,303.69C314.222,309.007 319.615,315.689 321.217,322.608C323.494,312.776 318.099,302.466 305.013,294.911C282.719,282.04 246.573,282.038 224.278,294.911C211.193,302.465 205.799,312.776 208.074,322.606C209.676,315.689 215.069,309.007 224.278,303.69Z" fill="#453C9E"/>
<path d="M198.749,239.895L209.077,222.1C215.153,215.799 220.008,207.43 222.473,199.019L232.932,180.998L217.889,172.363C217.408,172.036 216.905,171.745 216.38,171.497L216.371,171.491C212.093,169.465 206.409,170.009 200.171,173.61C186.872,181.287 176.092,199.959 176.092,215.314C176.092,222.988 178.784,228.381 183.136,230.897L183.144,230.901L198.749,239.895Z" fill="url(#pf_0_173_494)"/>
<path d="M215.647,230.001C234.454,230.001 249.699,221.199 249.699,210.34C249.699,199.482 234.454,190.68 215.647,190.68C196.841,190.68 181.595,199.482 181.595,210.34C181.595,221.199 196.841,230.001 215.647,230.001Z" transform="rotate(-119.999 215.647 210.34)" fill="#BCBEFF"/>
<path d="M267.963,324.86C315.08,324.86 353.276,286.664 353.276,239.547C353.276,192.429 315.08,154.233 267.963,154.233C220.846,154.233 182.65,192.429 182.65,239.547C182.65,286.664 220.846,324.86 267.963,324.86Z" fill="url(#pf_0_173_498)"/>
<path d="M267.963,324.86C315.08,324.86 353.276,286.664 353.276,239.547C353.276,192.429 315.08,154.233 267.963,154.233C220.846,154.233 182.65,192.429 182.65,239.547C182.65,286.664 220.846,324.86 267.963,324.86Z" fill="url(#pf_0_173_501)"/>
<path d="M315.706,297.244L326.035,279.449C332.11,273.148 336.965,264.779 339.43,256.368L349.889,238.347L334.848,229.71C334.368,229.383 333.864,229.093 333.339,228.844L333.332,228.838C329.054,226.812 323.37,227.356 317.132,230.957C303.833,238.634 293.053,257.307 293.053,272.661C293.053,280.335 295.745,285.728 300.097,288.244L300.105,288.248L315.706,297.244Z" fill="url(#pf_0_173_502)"/>
<path d="M332.6,287.35C351.406,287.35 366.652,278.547 366.652,267.689C366.652,256.831 351.406,248.028 332.6,248.028C313.794,248.028 298.548,256.831 298.548,267.689C298.548,278.547 313.794,287.35 332.6,287.35Z" transform="rotate(-119.999 332.6 267.689)" fill="#BCBEFF"/>
<path d="M309.646,281.789C309.646,266.435 320.427,247.762 333.725,240.085C338.334,237.424 342.638,236.436 346.296,236.915C342.412,236.056 337.701,236.953 332.619,239.887C319.321,247.565 308.54,266.237 308.54,281.592C308.54,291.627 313.145,297.758 320.049,298.662C313.764,297.271 309.646,291.278 309.646,281.789Z" fill="#FFFFFF"/>
<path d="M332.599,281.741C346.041,281.741 356.938,275.449 356.938,267.688C356.938,259.927 346.041,253.635 332.599,253.635C319.157,253.635 308.26,259.927 308.26,267.688C308.26,275.449 319.157,281.741 332.599,281.741Z" transform="rotate(-119.999 332.599 267.688)" fill="#393091"/>
<path d="M342.507,245.719C344.287,247.821 345.327,250.964 345.327,254.989C345.327,265.965 337.621,279.311 328.116,284.799C324.435,286.924 321.025,287.555 318.228,286.897C321.305,290.527 326.599,291.04 332.619,287.564C342.125,282.076 349.831,268.73 349.831,257.754C349.831,251.027 346.934,246.759 342.507,245.719Z" fill="#453C9E"/>
<path d="M217.007,298.86C228.971,298.86 238.669,282.063 238.669,261.342C238.669,240.621 228.971,223.824 217.007,223.824C205.044,223.824 195.346,240.621 195.346,261.342C195.346,282.063 205.044,298.86 217.007,298.86Z" transform="rotate(-45.201 217.007 261.342)" fill="#393091"/>
<path d="M230.249,265.429C229.456,271.525 224.856,273.441 219.97,269.707C215.086,265.973 211.768,258.001 212.56,251.905C213.353,245.808 217.954,243.893 222.839,247.627C227.723,251.361 231.041,259.331 230.249,265.429Z" fill="#42E8E0"/>
<path d="M219.52,289.28C206.08,279.003 196.951,257.073 199.131,240.295C200.02,233.456 202.65,228.53 206.366,225.79C199.34,226.451 194.019,232.411 192.677,242.741C190.498,259.519 199.627,281.449 213.066,291.726C221.026,297.812 228.713,298.443 234.112,294.46C229.728,294.872 224.683,293.229 219.52,289.28Z" fill="#453C9E"/>
<path d="M214.223,291.179C200.782,280.902 191.655,258.973 193.835,242.195C194.844,234.428 198.101,229.134 202.641,226.703C197.5,228.818 193.77,234.331 192.677,242.742C190.498,259.52 199.627,281.45 213.066,291.727C220.282,297.243 227.267,298.264 232.531,295.446C227.421,297.547 220.922,296.303 214.223,291.179Z" fill="#42E8E0"/>
<path d="M359.822,391.006C377.716,391.006 392.221,376.501 392.221,358.608C392.221,340.714 377.716,326.209 359.822,326.209C341.929,326.209 327.424,340.714 327.424,358.608C327.424,376.501 341.929,391.006 359.822,391.006Z" fill="url(#pf_0_173_514)"/>
<path d="M359.822,391.006C377.716,391.006 392.221,376.501 392.221,358.608C392.221,340.714 377.716,326.209 359.822,326.209C341.929,326.209 327.424,340.714 327.424,358.608C327.424,376.501 341.929,391.006 359.822,391.006Z" fill="url(#pf_0_173_517)"/>
<path d="M411.492,465.95C409.655,481.344 396.06,510.503 383.753,509.034C371.449,507.565 365.094,476.027 366.932,460.633C368.769,445.238 380.234,433.948 392.538,435.417C404.843,436.884 413.33,450.553 411.492,465.95Z" fill="url(#pf_0_173_518)"/>
<path d="M411.492,465.95C409.655,481.344 396.06,510.503 383.753,509.034C371.449,507.565 365.094,476.027 366.932,460.633C368.769,445.238 380.234,433.948 392.538,435.417C404.843,436.884 413.33,450.553 411.492,465.95Z" fill="url(#pf_0_173_519)"/>
<path d="M95.269,366.901C93.391,366.901 91.577,365.883 90.645,364.104C89.309,361.552 90.296,358.401 92.848,357.067L159.741,322.061C162.293,320.723 165.442,321.711 166.778,324.262C168.114,326.814 167.128,329.965 164.576,331.299L97.682,366.304C96.909,366.711 96.084,366.901 95.269,366.901Z" fill="#42E8E0"/>
<path d="M96.447,386.334C82.852,393.787 51.221,399.668 45.264,388.8C39.306,377.934 61.28,354.433 74.874,346.98C88.469,339.527 104.32,342.296 110.278,353.162C116.235,364.03 110.042,378.881 96.447,386.334Z" fill="url(#pf_0_173_521)"/>
<path d="M96.447,386.334C82.852,393.787 51.221,399.668 45.264,388.8C39.306,377.934 61.28,354.433 74.874,346.98C88.469,339.527 104.32,342.296 110.278,353.162C116.235,364.03 110.042,378.881 96.447,386.334Z" fill="url(#pf_0_173_522)"/>
<g opacity="0.5">
<path d="M32.691,371.825C30.654,388.206 22.16,397.954 13.228,385.75C1.779,370.103 0.665,354.806 0,345.665L0,256.426C0,270.387 4.633,283.857 13.228,296.511C32.104,327.732 34.343,358.542 32.691,371.825Z" fill="#42E8E0"/>
<path d="M297.628,388.181C290.584,388.372 283.473,388.44 276.304,388.381C220.195,387.921 168.213,379.778 124.827,366.122C81.49,354.546 78.871,399.891 93.996,427.9C104.765,447.844 119.341,453.306 124.827,455.364C168.213,469.017 220.195,477.162 276.304,477.622C283.473,477.681 290.584,477.613 297.628,477.423C348.55,473.669 361.884,424.765 338.086,401.938C331.444,395.566 319.034,388.009 297.628,388.181Z" fill="#42E8E0"/>
<path d="M562.38,317.029C562.133,355.619 559.868,362.644 557,371.538C545.074,399.678 514.141,424.538 470.84,443.108C432.932,454.291 422.463,414.901 437.879,385.697C448.368,365.827 464.692,357.139 470.84,353.868C514.139,335.298 545.072,310.438 557,282.298C557.875,280.43 559.108,277.954 560.277,276.255C560.567,276.217 560.955,276.166 561.246,276.128C561.979,278.19 562.283,279.045 562.38,289.578L562.38,317.029Z" fill="#42E8E0"/>
</g>
<g opacity="0.8">
<path d="M411.031,345.709C406.901,345.709 403.553,342.359 403.553,338.231L403.553,82.449C403.553,78.32 406.901,74.971 411.031,74.971C415.16,74.971 418.508,78.32 418.508,82.449L418.508,338.231C418.508,342.359 415.16,345.709 411.031,345.709Z" fill="url(#pf_0_173_529)"/>
</g>
<g opacity="0.8">
<path d="M116.058,236.604C113.845,236.604 112.051,234.81 112.051,232.596L112.051,4.008C112.051,1.794 113.845,0 116.058,0C118.272,0 120.066,1.794 120.066,4.008L120.066,232.596C120.068,234.81 118.272,236.604 116.058,236.604Z" fill="url(#pf_0_173_530)"/>
</g>
<defs>
<linearGradient id="pf_0_173_418" x1="-20.139" y1="568.143" x2="464.423" y2="568.143" gradientUnits="userSpaceOnUse">
<stop stop-color="#5761D7"/>
<stop offset="0.164" stop-color="#5E67DA"/>
<stop offset="0.405" stop-color="#727AE2"/>
<stop offset="0.692" stop-color="#9297EE"/>
<stop offset="1" stop-color="#BCBEFF"/>
</linearGradient>
<linearGradient id="pf_0_173_424" x1="116.993" y1="502.665" x2="407.84" y2="502.665" gradientUnits="userSpaceOnUse">
<stop stop-color="#42E8E0"/>
<stop offset="0.151" stop-color="#43E3E0"/>
<stop offset="0.329" stop-color="#45D5DF"/>
<stop offset="0.52" stop-color="#49BDDD"/>
<stop offset="0.721" stop-color="#4E9CDB"/>
<stop offset="0.927" stop-color="#5472D8"/>
<stop offset="1" stop-color="#5761D7"/>
</linearGradient>
<linearGradient id="pf_0_173_426" x1="262.414" y1="450.099" x2="407.84" y2="450.099" gradientUnits="userSpaceOnUse">
<stop stop-color="#42E8E0"/>
<stop offset="0.151" stop-color="#43E3E0"/>
<stop offset="0.329" stop-color="#45D5DF"/>
<stop offset="0.52" stop-color="#49BDDD"/>
<stop offset="0.721" stop-color="#4E9CDB"/>
<stop offset="0.927" stop-color="#5472D8"/>
<stop offset="1" stop-color="#5761D7"/>
</linearGradient>
<linearGradient id="pf_0_173_427" x1="116.993" y1="450.097" x2="262.419" y2="450.097" gradientUnits="userSpaceOnUse">
<stop stop-color="#42E8E0"/>
<stop offset="0.151" stop-color="#43E3E0"/>
<stop offset="0.329" stop-color="#45D5DF"/>
<stop offset="0.52" stop-color="#49BDDD"/>
<stop offset="0.721" stop-color="#4E9CDB"/>
<stop offset="0.927" stop-color="#5472D8"/>
<stop offset="1" stop-color="#5761D7"/>
</linearGradient>
<linearGradient id="pf_0_173_428" x1="116.993" y1="481.493" x2="407.84" y2="481.493" gradientUnits="userSpaceOnUse">
<stop stop-color="#42E8E0"/>
<stop offset="0.151" stop-color="#43E3E0"/>
<stop offset="0.329" stop-color="#45D5DF"/>
<stop offset="0.52" stop-color="#49BDDD"/>
<stop offset="0.721" stop-color="#4E9CDB"/>
<stop offset="0.927" stop-color="#5472D8"/>
<stop offset="1" stop-color="#5761D7"/>
</linearGradient>
<linearGradient id="pf_0_173_431" x1="262.419" y1="534.06" x2="407.84" y2="534.06" gradientUnits="userSpaceOnUse">
<stop stop-color="#42E8E0"/>
<stop offset="0.151" stop-color="#43E3E0"/>
<stop offset="0.329" stop-color="#45D5DF"/>
<stop offset="0.52" stop-color="#49BDDD"/>
<stop offset="0.721" stop-color="#4E9CDB"/>
<stop offset="0.927" stop-color="#5472D8"/>
<stop offset="1" stop-color="#5761D7"/>
</linearGradient>
<linearGradient id="pf_0_173_432" x1="116.993" y1="534.059" x2="262.419" y2="534.059" gradientUnits="userSpaceOnUse">
<stop stop-color="#42E8E0"/>
<stop offset="0.151" stop-color="#43E3E0"/>
<stop offset="0.329" stop-color="#45D5DF"/>
<stop offset="0.52" stop-color="#49BDDD"/>
<stop offset="0.721" stop-color="#4E9CDB"/>
<stop offset="0.927" stop-color="#5472D8"/>
<stop offset="1" stop-color="#5761D7"/>
</linearGradient>
<radialGradient id="pf_0_173_485" cx="0" cy="0" r="1" gradientUnits="userSpaceOnUse" gradientTransform="matrix(91.727794 18.15855 -18.15855 91.727794 167.978 107.355)">
<stop stop-color="#C0BFF6"/>
<stop offset="1" stop-color="#393091"/>
</radialGradient>
<radialGradient id="pf_0_173_488" cx="0" cy="0" r="1" gradientUnits="userSpaceOnUse" gradientTransform="matrix(71.87695 0 0 97.843525 157 174.538)">
<stop stop-color="#C0BFF6"/>
<stop offset="1" stop-color="#393091"/>
</radialGradient>
<linearGradient id="pf_0_173_491" x1="264.646" y1="480.011" x2="264.646" y2="284.405" gradientUnits="userSpaceOnUse">
<stop stop-color="#42E8E0"/>
<stop offset="0.005" stop-color="#42E6DF"/>
<stop offset="0.136" stop-color="#40B6CB"/>
<stop offset="0.271" stop-color="#3E8DB9"/>
<stop offset="0.407" stop-color="#3C6BAA"/>
<stop offset="0.547" stop-color="#3B519F"/>
<stop offset="0.689" stop-color="#3A3F97"/>
<stop offset="0.837" stop-color="#393493"/>
<stop offset="1" stop-color="#393091"/>
</linearGradient>
<radialGradient id="pf_0_173_494" cx="0" cy="0" r="1" gradientUnits="userSpaceOnUse" gradientTransform="matrix(50.616361 0 0 50.616374 90.211 53.561)">
<stop stop-color="#C0BFF6"/>
<stop offset="1" stop-color="#393091"/>
</radialGradient>
<radialGradient id="pf_0_173_498" cx="0" cy="0" r="1" gradientUnits="userSpaceOnUse" gradientTransform="matrix(72.097337 0 0 72.09735 160.602 113.454)">
<stop stop-color="#C0BFF6"/>
<stop offset="1" stop-color="#393091"/>
</radialGradient>
<linearGradient id="pf_0_173_501" x1="256.089" y1="324.04" x2="279.838" y2="155.054" gradientUnits="userSpaceOnUse">
<stop stop-color="#42E8E0"/>
<stop offset="0.005" stop-color="#42E6DF"/>
<stop offset="0.136" stop-color="#40B6CB"/>
<stop offset="0.271" stop-color="#3E8DB9"/>
<stop offset="0.407" stop-color="#3C6BAA"/>
<stop offset="0.547" stop-color="#3B519F"/>
<stop offset="0.689" stop-color="#3A3F97"/>
<stop offset="0.837" stop-color="#393493"/>
<stop offset="1" stop-color="#393091"/>
</linearGradient>
<radialGradient id="pf_0_173_502" cx="0" cy="0" r="1" gradientUnits="userSpaceOnUse" gradientTransform="matrix(34.239465 0 0 34.239464 160.025 112.688)">
<stop stop-color="#C0BFF6"/>
<stop offset="1" stop-color="#393091"/>
</radialGradient>
<radialGradient id="pf_0_173_514" cx="0" cy="0" r="1" gradientUnits="userSpaceOnUse" gradientTransform="matrix(33.152525 6.562913 -6.562916 33.152513 189.509 168.731)">
<stop stop-color="#C0BFF6"/>
<stop offset="1" stop-color="#393091"/>
</radialGradient>
<linearGradient id="pf_0_173_517" x1="333.612" y1="377.651" x2="386.032" y2="339.563" gradientUnits="userSpaceOnUse">
<stop stop-color="#42E8E0"/>
<stop offset="0.005" stop-color="#42E6DF"/>
<stop offset="0.136" stop-color="#40B6CB"/>
<stop offset="0.271" stop-color="#3E8DB9"/>
<stop offset="0.407" stop-color="#3C6BAA"/>
<stop offset="0.547" stop-color="#3B519F"/>
<stop offset="0.689" stop-color="#3A3F97"/>
<stop offset="0.837" stop-color="#393493"/>
<stop offset="1" stop-color="#393091"/>
</linearGradient>
<radialGradient id="pf_0_173_518" cx="0" cy="0" r="1" gradientUnits="userSpaceOnUse" gradientTransform="matrix(28.528145 3.403212 -5.607321 46.993755 209.96 220.171)">
<stop stop-color="#C0BFF6"/>
<stop offset="1" stop-color="#393091"/>
</radialGradient>
<linearGradient id="pf_0_173_519" x1="365.866" y1="469.567" x2="410.427" y2="474.883" gradientUnits="userSpaceOnUse">
<stop stop-color="#42E8E0"/>
<stop offset="0.005" stop-color="#42E6DF"/>
<stop offset="0.136" stop-color="#40B6CB"/>
<stop offset="0.271" stop-color="#3E8DB9"/>
<stop offset="0.407" stop-color="#3C6BAA"/>
<stop offset="0.547" stop-color="#3B519F"/>
<stop offset="0.689" stop-color="#3A3F97"/>
<stop offset="0.837" stop-color="#393493"/>
<stop offset="1" stop-color="#393091"/>
</linearGradient>
<radialGradient id="pf_0_173_521" cx="0" cy="0" r="1" gradientUnits="userSpaceOnUse" gradientTransform="matrix(13.810099 25.193797 -41.502305 22.748619 68.231 173.938)">
<stop stop-color="#C0BFF6"/>
<stop offset="1" stop-color="#393091"/>
</radialGradient>
<linearGradient id="pf_0_173_522" x1="109.794" y1="370.069" x2="57.455" y2="368.083" gradientUnits="userSpaceOnUse">
<stop stop-color="#42E8E0"/>
<stop offset="0.005" stop-color="#42E6DF"/>
<stop offset="0.136" stop-color="#40B6CB"/>
<stop offset="0.271" stop-color="#3E8DB9"/>
<stop offset="0.407" stop-color="#3C6BAA"/>
<stop offset="0.547" stop-color="#3B519F"/>
<stop offset="0.689" stop-color="#3A3F97"/>
<stop offset="0.837" stop-color="#393493"/>
<stop offset="1" stop-color="#393091"/>
</linearGradient>
<linearGradient id="pf_0_173_529" x1="411.03" y1="345.709" x2="411.03" y2="74.971" gradientUnits="userSpaceOnUse">
<stop stop-color="#161242"/>
<stop offset="0.116" stop-color="#171746"/>
<stop offset="0.252" stop-color="#1A2550"/>
<stop offset="0.4" stop-color="#1F3D62"/>
<stop offset="0.555" stop-color="#265F7B"/>
<stop offset="0.716" stop-color="#2F899A"/>
<stop offset="0.879" stop-color="#39BDC0"/>
<stop offset="1" stop-color="#42E8E0"/>
</linearGradient>
<linearGradient id="pf_0_173_530" x1="116.059" y1="236.603" x2="116.059" y2="0" gradientUnits="userSpaceOnUse">
<stop stop-color="#161242"/>
<stop offset="0.116" stop-color="#171746"/>
<stop offset="0.252" stop-color="#1A2550"/>
<stop offset="0.4" stop-color="#1F3D62"/>
<stop offset="0.555" stop-color="#265F7B"/>
<stop offset="0.716" stop-color="#2F899A"/>
<stop offset="0.879" stop-color="#39BDC0"/>
<stop offset="1" stop-color="#42E8E0"/>
</linearGradient>
</defs>
</svg>
