<svg width="18" height="28" viewBox="0 0 18 28" fill="none" xmlns="http://www.w3.org/2000/svg" xmlns:xlink="http://www.w3.org/1999/xlink">
<path d="M16.315,0.778C16.131,0.607 15.913,0.472 15.672,0.379C15.432,0.287 15.174,0.239 14.914,0.239C14.653,0.239 14.396,0.287 14.155,0.379C13.915,0.472 13.696,0.607 13.513,0.778L0.355,12.973C0.208,13.108 0.092,13.27 0.012,13.447C-0.067,13.625 -0.108,13.815 -0.108,14.007C-0.108,14.199 -0.067,14.39 0.012,14.567C0.092,14.745 0.208,14.906 0.355,15.042L13.513,27.237C14.288,27.956 15.539,27.956 16.315,27.237C17.091,26.518 17.091,25.358 16.315,24.639L4.852,14L16.331,3.361C17.091,2.656 17.091,1.482 16.315,0.778Z" fill="#1E232C" stroke="#1E232C" stroke-width="0.2" stroke-miterlimit="3.999327"/>
</svg>
